<?xml version="1.0" encoding="UTF-8"?>
<svg width="640px" height="512px" viewBox="0 0 640 512" version="1.1" xmlns="http://www.w3.org/2000/svg" xmlns:xlink="http://www.w3.org/1999/xlink">
    <title>Shape</title>
    <g id="Page-1" stroke="none" stroke-width="1" fill="none" fill-rule="evenodd">
        <g id="bell-school-slash-solid" fill="#E5432B" fill-rule="nonzero">
            <path d="M272,448 C217.94,448 168.17,429.82 128,399.54 L128,480 C128,497.67 142.33,512 160,512 L384,512 C401.67,512 416,497.67 416,480 L416,451.53 L378.34,422.42 C346.23,438.51 310.29,448 272,448 Z M350.19,400.67 L65.95,180.99 C64.8,189.85 64,198.82 64,208 C64,322.88 157.12,416 272,416 C299.68,416 326.04,410.48 350.19,400.67 Z M633.82,458.1 L561.56,402.25 C570.45,393.54 576,381.43 576,368 C576,341.49 554.51,320 528,320 C510.18,320 494.8,329.83 486.52,344.25 L449.71,315.8 C468.88,284.38 480,247.52 480,208 C480,93.12 386.87,0 272,0 C213.46,0 160.94,24.5 123.2,63.45 L45.47,3.37 C38.49,-2.05 28.43,-0.8 23.01,6.18 L3.37,31.45 C-2.05,38.42 -0.8,48.47 6.18,53.9 L594.53,508.63 C601.51,514.06 611.56,512.8 616.99,505.82 L636.63,480.55 C642.05,473.58 640.8,463.53 633.82,458.1 Z M346.64,236.15 L319.29,215.01 C319.63,212.7 320,210.4 320,208 C320,181.49 298.51,160 272,160 C265.3,160 258.93,161.39 253.13,163.87 L226.13,143 C239.11,133.71 254.81,128 272,128 C316.11,128 352,163.89 352,208 C352,217.95 349.98,227.37 346.64,236.15 L346.64,236.15 Z" id="Shape"></path>
        </g>
    </g>
</svg>