<?xml version="1.0" encoding="UTF-8"?>
<svg width="512px" height="512px" viewBox="0 0 512 512" version="1.1" xmlns="http://www.w3.org/2000/svg" xmlns:xlink="http://www.w3.org/1999/xlink">
    <title>Shape</title>
    <g id="Page-1" stroke="none" stroke-width="1" fill="none" fill-rule="evenodd">
        <g id="bell-school-solid" fill="#9AA5B2" fill-rule="nonzero">
            <path d="M416,208 C416,93.12 322.88,0 208,0 C93.12,0 0,93.12 0,208 C0,322.88 93.12,416 208,416 C322.88,416 416,322.88 416,208 Z M128,208 C128,163.89 163.89,128 208,128 C252.11,128 288,163.89 288,208 C288,252.11 252.11,288 208,288 C163.89,288 128,252.11 128,208 Z M256,208 C256,181.49 234.51,160 208,160 C181.49,160 160,181.49 160,208 C160,234.51 181.49,256 208,256 C234.51,256 256,234.51 256,208 Z M464,320 C437.49,320 416,341.49 416,368 C416,384.43 424.27,398.89 436.86,407.55 C430.78,421.9 416.55,432 400,432 L352,432 L352,399.54 C311.83,429.82 262.06,448 208,448 C153.94,448 104.17,429.82 64,399.54 L64,480 C64,497.67 78.33,512 96,512 L320,512 C337.67,512 352,497.67 352,480 L400,480 C442.2,480 477.48,450.13 485.98,410.44 C501.37,402.44 512,386.54 512,368 C512,341.49 490.51,320 464,320 Z" id="Shape"></path>
        </g>
    </g>
</svg>